<svg width="1320" height="172" viewBox="0 0 1320 172" fill="none" xmlns="http://www.w3.org/2000/svg">
<g clip-path="url(#clip0_495_11712)">
<rect width="1320" height="172" rx="16" fill="#002B4F"/>
<path fill-rule="evenodd" clip-rule="evenodd" d="M-30.3343 170.813H54.334C66.3307 170.813 73.7407 157.828 67.5685 147.622L25.2344 77.6216C19.2399 67.7094 4.76008 67.7094 -1.23448 77.6216L-43.5685 147.622C-49.741 157.828 -42.3305 170.813 -30.3343 170.813ZM27.1251 76.4962C20.2741 65.1679 3.72583 65.1679 -3.12514 76.4962L-45.459 146.497C-52.5132 158.161 -44.0447 173 -30.3343 173H54.334C68.0445 173 76.5131 158.161 69.4591 146.497L27.1251 76.4962Z" fill="url(#paint0_linear_495_11712)"/>
<path fill-rule="evenodd" clip-rule="evenodd" d="M735.18 -5.5C735.18 23.3955 758.604 46.82 787.5 46.82C816.396 46.82 839.82 23.3955 839.82 -5.5C839.82 -34.3956 816.396 -57.82 787.5 -57.82C758.604 -57.82 735.18 -34.3956 735.18 -5.5ZM733 -5.5C733 24.5995 757.4 49 787.5 49C817.6 49 842 24.5995 842 -5.5C842 -35.5997 817.6 -60 787.5 -60C757.4 -60 733 -35.5997 733 -5.5Z" fill="url(#paint1_linear_495_11712)"/>
<path fill-rule="evenodd" clip-rule="evenodd" d="M403.088 220.813H443.911C449.437 220.813 454.544 217.894 457.306 213.156L477.718 178.156C480.481 173.419 480.481 167.581 477.718 162.844L457.306 127.844C454.544 123.106 449.437 120.187 443.911 120.187L403.088 120.188C397.562 120.188 392.456 123.106 389.693 127.844L369.282 162.844C366.519 167.581 366.519 173.419 369.282 178.156L389.693 213.156C392.456 217.894 397.562 220.813 403.088 220.813ZM443.911 223C450.227 223 456.062 219.665 459.22 214.25L479.632 179.25C482.789 173.835 482.789 167.165 479.632 161.75L459.22 126.75C456.062 121.335 450.227 118 443.911 118L403.088 118C396.773 118 390.937 121.335 387.78 126.75L367.368 161.75C364.211 167.165 364.211 173.835 367.368 179.25L387.78 214.25C390.937 219.665 396.773 223 403.088 223H443.911Z" fill="url(#paint2_linear_495_11712)"/>
<g opacity="0.3" clip-path="url(#clip1_495_11712)">
<path d="M1314.41 85.2377C1306.23 88.7478 1297.89 92.7427 1289.61 97.1122C1281.69 101.29 1273.7 105.884 1265.86 110.764C1258.2 115.53 1250.53 120.661 1243.07 126.017C1235.64 131.35 1228.24 137.024 1221.09 142.879C1213.84 148.821 1206.66 155.097 1199.75 161.536C1196.22 164.818 1192.68 168.236 1189.21 171.698L1188.91 172.001H1189.49L1189.54 171.948C1192.97 168.528 1196.5 165.123 1200.03 161.828C1200.88 161.04 1201.76 160.225 1202.65 159.406C1219.67 143.806 1238.47 129.322 1258.52 116.359C1278.93 103.16 1299.58 92.2329 1319.89 83.8823L1320 83.8372V82.9102L1319.75 83.0104C1317.95 83.7445 1316.15 84.4948 1314.41 85.2402V85.2377Z" fill="white"/>
<path d="M1318.42 148.157C1316.24 146.289 1313.58 144.836 1310.51 143.837C1307.68 142.911 1304.48 142.39 1301.02 142.286C1300.59 142.274 1300.15 142.268 1299.71 142.268C1296.83 142.268 1293.73 142.544 1290.5 143.092C1286.96 143.692 1283.21 144.625 1279.34 145.865C1275.61 147.062 1271.74 148.557 1267.83 150.313C1264 152.029 1260.08 154.014 1256.18 156.214C1252.31 158.399 1248.41 160.824 1244.58 163.423C1240.81 165.984 1237.04 168.763 1233.38 171.684L1232.98 172H1233.72L1233.77 171.961C1244.83 163.218 1256.74 155.895 1268.22 150.785C1279.91 145.576 1290.83 142.823 1299.78 142.823C1303.64 142.823 1307.16 143.332 1310.23 144.337C1314.06 145.591 1317.24 147.559 1319.69 150.186L1320 150.52V149.664L1319.95 149.612C1319.47 149.101 1318.95 148.613 1318.42 148.158L1318.42 148.157Z" fill="white"/>
<path d="M1308.96 133.526H1308.9C1305.08 133.531 1300.96 133.949 1296.64 134.771C1292.55 135.549 1288.22 136.698 1283.78 138.187C1279.53 139.616 1275.11 141.378 1270.65 143.423C1266.31 145.416 1261.87 147.706 1257.46 150.229C1253.09 152.727 1248.69 155.49 1244.38 158.44C1240.05 161.404 1235.73 164.609 1231.54 167.969C1230.07 169.154 1228.55 170.406 1227.03 171.688L1226.66 172H1227.33L1227.38 171.958C1241.21 160.251 1256.21 150.539 1270.75 143.868C1284.78 137.437 1297.92 134.037 1308.78 134.037C1312.76 134.037 1316.46 134.493 1319.78 135.392L1320 135.454V134.879L1319.87 134.844C1316.57 133.969 1312.9 133.524 1308.96 133.524L1308.96 133.526Z" fill="white"/>
<path d="M1317.86 123.562C1313.38 123.717 1308.56 124.335 1303.54 125.403C1298.81 126.409 1293.83 127.825 1288.74 129.616C1283.87 131.328 1278.84 133.405 1273.77 135.786C1268.85 138.101 1263.84 140.741 1258.86 143.628C1253.95 146.483 1249 149.624 1244.16 152.962C1239.3 156.315 1234.46 159.929 1229.77 163.706C1226.62 166.239 1223.45 168.925 1220.34 171.691L1219.99 172H1220.63L1220.68 171.955C1237.42 157.078 1255.82 144.722 1273.88 136.226C1290.79 128.273 1306.68 124.059 1319.82 124.038H1320V123.526H1319.82C1319.15 123.53 1318.49 123.542 1317.86 123.564L1317.86 123.562Z" fill="white"/>
<path d="M1312.83 161.864C1311.87 159.438 1310.48 157.333 1308.67 155.609C1306.89 153.902 1304.68 152.549 1302.13 151.589C1299.74 150.696 1297.04 150.155 1294.09 149.983C1293.4 149.943 1292.68 149.922 1291.96 149.922C1289.78 149.922 1287.46 150.105 1285.06 150.467C1282 150.928 1278.74 151.687 1275.38 152.722C1272.12 153.723 1268.73 154.994 1265.29 156.501C1261.93 157.977 1258.47 159.699 1255.03 161.617C1251.61 163.524 1248.16 165.65 1244.77 167.938C1243.01 169.122 1241.23 170.381 1239.47 171.679L1239.03 171.998H1239.85L1239.9 171.963C1258.35 158.507 1277.83 150.474 1292 150.474C1295.69 150.474 1298.99 151.016 1301.83 152.082C1305.91 153.615 1309.02 156.127 1311.07 159.546C1313.07 162.881 1314.03 167.01 1313.92 171.817L1313.92 171.998H1314.35L1314.35 171.827C1314.37 171.268 1314.38 170.723 1314.37 170.21C1314.31 167.13 1313.79 164.322 1312.83 161.864H1312.83Z" fill="white"/>
<path d="M1283 169.273C1280.84 168.189 1278.22 167.641 1275.2 167.641C1274.27 167.641 1273.29 167.693 1272.29 167.797C1270.3 168.004 1268.16 168.417 1265.94 169.027C1263.78 169.621 1261.52 170.408 1259.21 171.366C1258.98 171.461 1258.75 171.56 1258.51 171.659L1258.59 172H1259.05L1259.08 171.986C1265.01 169.501 1270.57 168.187 1275.14 168.187C1278.07 168.187 1280.6 168.714 1282.66 169.753C1283.82 170.334 1284.84 171.072 1285.69 171.946L1285.75 172H1286.57L1286.29 171.702C1285.38 170.729 1284.27 169.912 1283 169.274V169.273Z" fill="white"/>
<path d="M1303.61 167.609C1302.88 165.457 1301.76 163.577 1300.28 162.022C1298.82 160.474 1296.99 159.231 1294.84 158.328C1292.83 157.482 1290.53 156.946 1288.02 156.734C1287.19 156.663 1286.31 156.628 1285.42 156.628C1283.78 156.628 1282.05 156.748 1280.26 156.987C1277.61 157.341 1274.78 157.958 1271.85 158.825C1269 159.666 1266.04 160.747 1263.03 162.041C1260.07 163.314 1257.03 164.806 1254 166.476C1251.17 168.038 1248.28 169.788 1245.44 171.677L1244.95 172.001H1245.75L1245.79 171.971C1251.59 168.135 1257.42 164.95 1263.12 162.501C1271.28 158.993 1278.94 157.14 1285.25 157.14C1288.77 157.14 1291.89 157.704 1294.53 158.818C1299.99 161.12 1303.25 165.625 1303.96 171.843L1303.98 172.001H1304.55L1304.53 171.805C1304.36 170.31 1304.05 168.9 1303.61 167.612L1303.61 167.609Z" fill="white"/>
<path d="M1288.5 164.183C1286.09 163.064 1283.19 162.497 1279.9 162.497C1278.67 162.497 1277.36 162.577 1276.02 162.735C1273.72 163.005 1271.26 163.51 1268.71 164.236C1266.23 164.942 1263.64 165.864 1261 166.977C1258.41 168.071 1255.74 169.364 1253.07 170.819C1252.62 171.067 1252.12 171.345 1251.55 171.667L1250.97 171.999H1251.87L1251.92 171.975C1255 170.232 1258.09 168.708 1261.09 167.44C1267.96 164.543 1274.4 163.01 1279.72 163.01C1282.96 163.01 1285.81 163.567 1288.18 164.665C1291.43 166.174 1293.7 168.601 1294.93 171.882L1294.97 171.997H1295.58L1295.49 171.761C1294.26 168.307 1291.9 165.756 1288.5 164.182L1288.5 164.183Z" fill="white"/>
<path d="M1319.73 40.1566C1316.7 41.9192 1313.68 43.6993 1310.76 45.4493C1298.66 52.6988 1286.6 60.3754 1274.91 68.2663C1263.67 75.849 1252.49 83.8175 1241.69 91.9502C1236.37 95.9551 1231.02 100.087 1225.8 104.231C1220.59 108.368 1215.37 112.627 1210.27 116.89C1205.15 121.174 1200.01 125.589 1194.99 130.015C1189.92 134.48 1184.83 139.089 1179.85 143.711C1175.04 148.181 1170.25 152.747 1165.61 157.283C1161.02 161.783 1156.43 166.392 1151.98 170.983L1151 171.999H1151.8L1151.85 171.944C1161.12 162.208 1170.64 152.803 1180.12 143.992C1181.35 142.856 1182.61 141.692 1183.87 140.533C1222.73 104.913 1269.77 70.6891 1319.91 41.5609L1320 41.5095V40L1319.73 40.1566H1319.73Z" fill="white"/>
<path d="M1299.57 72.7795C1289.71 78.3203 1279.82 84.2995 1270.16 90.5518C1260.81 96.6062 1251.47 103.05 1242.41 109.707C1233.43 116.298 1224.51 123.256 1215.89 130.389C1207.16 137.613 1198.51 145.207 1190.17 152.961C1183.62 159.062 1177.15 165.365 1170.97 171.699L1170.67 172H1171.37L1171.42 171.945C1177.64 165.496 1184.05 159.206 1190.45 153.246C1191.5 152.272 1192.56 151.29 1193.62 150.326C1211.56 133.872 1231.44 118.064 1252.68 103.341C1274.45 88.2606 1297.06 74.7337 1319.9 63.1336L1320 63.0847V61.8809L1319.74 62.0124C1313 65.4223 1306.21 69.0451 1299.57 72.7795H1299.57Z" fill="white"/>
<path d="M1294.42 85.3483C1285.57 90.1688 1276.67 95.4177 1267.95 100.948C1259.47 106.33 1250.99 112.091 1242.75 118.072C1234.56 124.015 1226.42 130.311 1218.55 136.784C1210.58 143.349 1202.68 150.268 1195.07 157.348C1190.09 161.986 1185.12 166.814 1180.29 171.698L1180 172H1180.57L1180.63 171.946C1185.4 167.106 1190.36 162.291 1195.36 157.638C1196.31 156.748 1197.28 155.851 1198.24 154.972C1233.77 122.399 1276.98 93.506 1319.9 73.6192L1320 73.5715V72.5105L1319.75 72.6283C1311.33 76.5017 1302.81 80.7809 1294.43 85.3483H1294.42Z" fill="white"/>
<path d="M1305.03 59.456C1294.08 65.8073 1283.14 72.5958 1272.49 79.6336C1262.21 86.427 1251.97 93.6076 1242.06 100.977C1232.26 108.261 1222.52 115.918 1213.12 123.74C1208.4 127.668 1203.66 131.723 1199.03 135.793C1194.36 139.899 1189.67 144.142 1185.09 148.401C1180.66 152.519 1176.25 156.729 1171.99 160.914C1168.39 164.451 1164.79 168.079 1161.28 171.698L1160.99 171.999H1161.56L1161.62 171.944C1169.28 164.037 1177.27 156.211 1185.36 148.685C1186.52 147.607 1187.69 146.535 1188.82 145.499C1207.28 128.57 1227.75 112.076 1249.64 96.4763C1272.16 80.4303 1295.8 65.6119 1319.91 52.4346L1320 52.3845V51.0303L1319.73 51.1756C1314.8 53.8714 1309.85 56.6562 1305.03 59.4548L1305.03 59.456Z" fill="white"/>
<path d="M1300.35 109.548C1294.02 112.004 1287.51 114.887 1281.01 118.121C1274.73 121.24 1268.37 124.732 1262.08 128.502C1255.91 132.207 1249.71 136.242 1243.65 140.494C1237.6 144.748 1231.57 149.306 1225.74 154.039C1219.81 158.854 1213.94 163.959 1208.31 169.21C1207.52 169.949 1206.68 170.738 1205.68 171.694L1205.36 172H1205.97L1206.02 171.95C1206.91 171.099 1207.78 170.277 1208.61 169.508C1209.33 168.834 1210.06 168.162 1210.77 167.51C1232.58 147.512 1256.91 130.579 1281.13 118.545C1294.5 111.898 1307.54 106.886 1319.87 103.648L1320 103.613V103.131L1319.77 103.189C1313.5 104.843 1306.97 106.983 1300.35 109.548Z" fill="white"/>
<path d="M1311.29 114.894C1305.82 116.189 1300.08 117.937 1294.25 120.09C1288.7 122.139 1282.97 124.587 1277.22 127.363C1271.66 130.053 1266 133.091 1260.4 136.392C1254.89 139.644 1249.34 143.208 1243.91 146.982C1238.48 150.763 1233.07 154.827 1227.83 159.062C1222.89 163.057 1217.97 167.306 1213.23 171.692L1212.9 171.999H1213.51L1213.57 171.951C1213.84 171.699 1214.11 171.448 1214.39 171.197C1230.29 156.621 1248.43 143.58 1266.86 133.487C1285.62 123.212 1303.94 116.407 1319.85 113.809L1320 113.784V113.175L1319.79 113.208C1317.03 113.646 1314.17 114.212 1311.29 114.893L1311.29 114.894Z" fill="white"/>
<path d="M1307.06 97.9429C1299.85 100.882 1292.48 104.279 1285.13 108.039C1278.08 111.65 1270.93 115.66 1263.9 119.954C1257.01 124.16 1250.11 128.716 1243.37 133.499C1236.65 138.269 1229.96 143.363 1223.49 148.637C1216.91 153.997 1210.41 159.668 1204.16 165.493C1202 167.509 1199.82 169.596 1197.67 171.694L1197.36 171.998H1197.95L1198 171.947C1200.12 169.873 1202.29 167.801 1204.45 165.787C1205.22 165.075 1206.01 164.337 1206.82 163.596C1223.22 148.565 1242.06 134.327 1261.31 122.418C1281.16 110.141 1300.86 100.557 1319.88 93.9367L1320 93.8953V93.0898L1319.76 93.1713C1315.58 94.6069 1311.3 96.2116 1307.06 97.9429H1307.06Z" fill="white"/>
</g>
</g>
<defs>
<linearGradient id="paint0_linear_495_11712" x1="11.9999" y1="68" x2="3.42715" y2="172.295" gradientUnits="userSpaceOnUse">
<stop stop-color="#C2FFF6" stop-opacity="0.05"/>
<stop offset="1" stop-color="#00A88E"/>
</linearGradient>
<linearGradient id="paint1_linear_495_11712" x1="842" y1="-5.50005" x2="733" y2="-5.50005" gradientUnits="userSpaceOnUse">
<stop stop-color="#C72C91" stop-opacity="0.1"/>
<stop offset="1" stop-color="#44ABFF"/>
</linearGradient>
<linearGradient id="paint2_linear_495_11712" x1="423.5" y1="223" x2="423.5" y2="118" gradientUnits="userSpaceOnUse">
<stop stop-color="#4AA147" stop-opacity="0.1"/>
<stop offset="1" stop-color="#00A88E"/>
</linearGradient>
<clipPath id="clip0_495_11712">
<rect width="1320" height="172" rx="16" fill="white"/>
</clipPath>
<clipPath id="clip1_495_11712">
<rect width="169" height="132" fill="white" transform="translate(1151 40)"/>
</clipPath>
</defs>
</svg>
