<svg width="350" height="212" viewBox="0 0 350 212" fill="none" xmlns="http://www.w3.org/2000/svg">
<g clip-path="url(#clip0_1788_28480)">
<rect width="350" height="212" rx="16" fill="#002B4F"/>
<path fill-rule="evenodd" clip-rule="evenodd" d="M-64.3343 42.8127H20.334C32.3307 42.8127 39.7407 29.828 33.5685 19.6221L-8.76556 -50.3784C-14.7601 -60.2906 -29.2399 -60.2906 -35.2345 -50.3784L-77.5685 19.6221C-83.741 29.828 -76.3305 42.8127 -64.3343 42.8127ZM-6.87493 -51.5038C-13.7259 -62.8321 -30.2742 -62.8321 -37.1251 -51.5038L-79.459 18.4968C-86.5132 30.1606 -78.0447 45 -64.3343 45H20.334C34.0445 45 42.5131 30.1606 35.4591 18.4968L-6.87493 -51.5038Z" fill="url(#paint0_linear_1788_28480)"/>
<path fill-rule="evenodd" clip-rule="evenodd" d="M294.18 -5.5C294.18 23.3955 317.604 46.82 346.5 46.82C375.396 46.82 398.82 23.3955 398.82 -5.5C398.82 -34.3956 375.396 -57.82 346.5 -57.82C317.604 -57.82 294.18 -34.3956 294.18 -5.5ZM292 -5.5C292 24.5995 316.4 49 346.5 49C376.6 49 401 24.5995 401 -5.5C401 -35.5997 376.6 -60 346.5 -60C316.4 -60 292 -35.5997 292 -5.5Z" fill="url(#paint1_linear_1788_28480)"/>
<g opacity="0.3" clip-path="url(#clip1_1788_28480)">
<path d="M344.415 125.238C336.232 128.748 327.886 132.743 319.609 137.112C311.694 141.29 303.703 145.884 295.859 150.764C288.2 155.53 280.533 160.661 273.069 166.017C265.637 171.35 258.243 177.024 251.094 182.879C243.839 188.821 236.656 195.097 229.746 201.536C226.222 204.818 222.677 208.236 219.209 211.698L218.905 212.001H219.487L219.54 211.948C222.965 208.528 226.495 205.123 230.033 201.828C230.878 201.04 231.759 200.225 232.652 199.406C249.67 183.806 268.465 169.322 288.516 156.359C308.93 143.16 329.579 132.233 349.89 123.882L350 123.837V122.91L349.752 123.01C347.947 123.744 346.151 124.495 344.415 125.24V125.238Z" fill="white"/>
<path d="M348.423 188.157C346.236 186.289 343.575 184.836 340.514 183.837C337.678 182.911 334.483 182.39 331.017 182.286C330.59 182.274 330.151 182.268 329.713 182.268C326.83 182.268 323.731 182.544 320.502 183.092C316.961 183.692 313.206 184.625 309.342 185.865C305.614 187.062 301.74 188.557 297.827 190.313C293.999 192.029 290.082 194.014 286.182 196.214C282.312 198.399 278.409 200.824 274.582 203.423C270.812 205.984 267.041 208.763 263.377 211.684L262.981 212H263.719L263.768 211.961C274.83 203.218 286.743 195.895 298.217 190.785C309.912 185.576 320.828 182.823 329.783 182.823C333.643 182.823 337.156 183.332 340.229 184.337C344.06 185.591 347.243 187.559 349.688 190.186L349.999 190.52V189.664L349.951 189.612C349.468 189.101 348.954 188.613 348.422 188.158L348.423 188.157Z" fill="white"/>
<path d="M338.961 173.526H338.901C335.084 173.531 330.958 173.949 326.638 174.771C322.546 175.549 318.222 176.698 313.785 178.187C309.526 179.616 305.107 181.378 300.649 183.423C296.306 185.416 291.868 187.706 287.459 190.229C283.091 192.727 278.693 195.49 274.382 198.44C270.05 201.404 265.73 204.609 261.542 207.969C260.065 209.154 258.549 210.406 257.033 211.688L256.664 212H257.331L257.381 211.958C271.213 200.251 286.21 190.539 300.754 183.868C314.775 177.437 327.924 174.037 338.781 174.037C342.763 174.037 346.462 174.493 349.775 175.392L350.002 175.454V174.879L349.869 174.844C346.567 173.969 342.897 173.524 338.963 173.524L338.961 173.526Z" fill="white"/>
<path d="M347.862 163.563C343.384 163.717 338.565 164.336 333.543 165.403C328.81 166.409 323.83 167.826 318.741 169.616C313.87 171.328 308.835 173.405 303.774 175.787C298.852 178.102 293.836 180.741 288.862 183.629C283.946 186.484 278.999 189.624 274.159 192.963C269.3 196.315 264.457 199.929 259.766 203.706C256.619 206.239 253.447 208.925 250.337 211.691L249.989 212H250.628L250.679 211.955C267.422 197.078 285.819 184.722 303.882 176.226C320.791 168.273 336.677 164.059 349.82 164.039H350V163.526H349.82C349.151 163.53 348.492 163.543 347.864 163.564L347.862 163.563Z" fill="white"/>
<path d="M342.825 201.864C341.873 199.438 340.475 197.333 338.673 195.609C336.888 193.902 334.685 192.549 332.126 191.589C329.743 190.696 327.041 190.155 324.091 189.983C323.398 189.943 322.68 189.922 321.956 189.922C319.782 189.922 317.463 190.105 315.063 190.467C312 190.928 308.741 191.687 305.375 192.722C302.121 193.723 298.729 194.994 295.294 196.501C291.927 197.977 288.474 199.699 285.034 201.617C281.614 203.524 278.16 205.65 274.766 207.938C273.011 209.122 271.229 210.381 269.467 211.679L269.033 211.998H269.853L269.901 211.963C288.35 198.507 307.826 190.474 321.998 190.474C325.686 190.474 328.995 191.016 331.832 192.082C335.909 193.615 339.017 196.127 341.068 199.546C343.07 202.881 344.03 207.01 343.923 211.817L343.919 211.998H344.348L344.353 211.827C344.371 211.268 344.376 210.723 344.367 210.21C344.311 207.13 343.794 204.322 342.829 201.864H342.825Z" fill="white"/>
<path d="M312.998 209.273C310.839 208.189 308.216 207.641 305.202 207.641C304.272 207.641 303.292 207.693 302.287 207.797C300.296 208.004 298.161 208.417 295.943 209.027C293.781 209.621 291.516 210.408 289.208 211.366C288.978 211.461 288.746 211.56 288.515 211.659L288.585 212H289.047L289.08 211.986C295.013 209.501 300.568 208.187 305.143 208.187C308.068 208.187 310.598 208.714 312.663 209.753C313.819 210.334 314.838 211.072 315.692 211.946L315.745 212H316.569L316.289 211.702C315.376 210.729 314.268 209.912 312.998 209.274V209.273Z" fill="white"/>
<path d="M333.612 207.609C332.876 205.457 331.757 203.577 330.285 202.022C328.819 200.474 326.986 199.231 324.839 198.328C322.829 197.482 320.535 196.946 318.022 196.734C317.186 196.663 316.31 196.628 315.42 196.628C313.782 196.628 312.047 196.748 310.26 196.987C307.609 197.341 304.779 197.958 301.846 198.825C299.004 199.666 296.037 200.747 293.027 202.041C290.066 203.314 287.03 204.806 284 206.476C281.166 208.038 278.285 209.788 275.437 211.677L274.947 212.001H275.747L275.792 211.971C281.59 208.135 287.419 204.95 293.119 202.501C301.285 198.993 308.937 197.14 315.249 197.14C318.767 197.14 321.888 197.704 324.528 198.818C329.989 201.12 333.249 205.625 333.96 211.843L333.978 212.001H334.55L334.528 211.805C334.361 210.31 334.054 208.9 333.614 207.612L333.612 207.609Z" fill="white"/>
<path d="M318.503 204.183C316.085 203.065 313.19 202.497 309.9 202.497C308.669 202.497 307.363 202.577 306.019 202.735C303.722 203.006 301.265 203.511 298.713 204.236C296.232 204.942 293.638 205.864 291.003 206.977C288.408 208.072 285.739 209.364 283.072 210.819C282.618 211.067 282.12 211.345 281.552 211.667L280.969 211.999H281.874L281.916 211.975C284.998 210.233 288.086 208.708 291.091 207.44C297.962 204.543 304.405 203.011 309.721 203.011C312.965 203.011 315.811 203.567 318.177 204.666C321.426 206.174 323.698 208.602 324.926 211.882L324.969 211.998H325.576L325.491 211.761C324.256 208.307 321.904 205.757 318.501 204.182L318.503 204.183Z" fill="white"/>
<path d="M349.729 80.1566C346.698 81.9192 343.681 83.6993 340.761 85.4493C328.663 92.6988 316.6 100.375 304.906 108.266C293.667 115.849 282.492 123.818 271.689 131.95C266.368 135.955 261.025 140.087 255.805 144.231C250.593 148.368 245.367 152.627 240.271 156.89C235.15 161.174 230.009 165.589 224.987 170.015C219.922 174.48 214.829 179.089 209.851 183.711C205.038 188.181 200.249 192.747 195.614 197.283C191.017 201.783 186.431 206.392 181.981 210.983L181 211.999H181.799L181.852 211.944C191.124 202.208 200.636 192.803 210.124 183.992C211.347 182.856 212.608 181.692 213.873 180.533C252.728 144.913 299.77 110.689 349.911 81.5609L350 81.5095V80L349.731 80.1566H349.729Z" fill="white"/>
<path d="M329.571 112.779C319.715 118.32 309.819 124.299 300.162 130.552C290.81 136.606 281.472 143.05 272.407 149.707C263.433 156.298 254.512 163.256 245.892 170.389C237.161 177.613 228.509 185.207 220.174 192.961C213.616 199.062 207.153 205.365 200.966 211.699L200.671 212H201.365L201.418 211.945C207.642 205.496 214.047 199.206 220.452 193.246C221.5 192.272 222.564 191.29 223.615 190.326C241.565 173.872 261.439 158.064 282.685 143.341C304.448 128.261 327.062 114.734 349.901 103.134L349.999 103.085V101.881L349.738 102.012C342.998 105.422 336.213 109.045 329.57 112.779H329.571Z" fill="white"/>
<path d="M324.425 125.349C315.574 130.169 306.666 135.418 297.948 140.949C289.465 146.33 280.986 152.092 272.746 158.072C264.557 164.015 256.418 170.311 248.554 176.784C240.577 183.349 232.676 190.268 225.071 197.348C220.089 201.986 215.118 206.814 210.294 211.698L209.997 212H210.573L210.626 211.946C215.4 207.106 220.357 202.292 225.355 197.638C226.31 196.748 227.281 195.851 228.24 194.972C263.773 162.399 306.977 133.506 349.896 113.619L350 113.572V112.511L349.745 112.628C341.331 116.502 332.813 120.781 324.426 125.349H324.425Z" fill="white"/>
<path d="M335.027 99.456C324.084 105.807 313.136 112.596 302.485 119.634C292.205 126.427 281.966 133.608 272.055 140.977C262.258 148.261 252.524 155.918 243.123 163.74C238.403 167.668 233.662 171.723 229.033 175.793C224.363 179.899 219.671 184.142 215.087 188.401C210.658 192.519 206.253 196.729 201.994 200.914C198.395 204.451 194.79 208.079 191.279 211.698L190.988 211.999H191.562L191.616 211.944C199.278 204.037 207.268 196.211 215.364 188.685C216.524 187.607 217.685 186.535 218.816 185.499C237.283 168.57 257.747 152.076 279.64 136.476C302.16 120.43 325.801 105.612 349.908 92.4346L350 92.3845V91.0303L349.735 91.1756C344.797 93.8714 339.849 96.6562 335.028 99.4548L335.027 99.456Z" fill="white"/>
<path d="M330.35 149.549C324.018 152.004 317.509 154.888 311.007 158.121C304.732 161.24 298.366 164.733 292.082 168.502C285.905 172.208 279.705 176.243 273.653 180.494C267.598 184.749 261.571 189.306 255.739 194.039C249.806 198.854 243.943 203.959 238.312 209.21C237.519 209.95 236.684 210.739 235.682 211.695L235.362 212H235.969L236.021 211.95C236.912 211.1 237.781 210.278 238.606 209.509C239.33 208.835 240.056 208.162 240.767 207.51C262.583 187.512 286.912 170.579 311.127 158.546C324.501 151.899 337.536 146.887 349.867 143.648L350 143.613V143.131L349.775 143.19C343.504 144.843 336.969 146.983 330.35 149.549Z" fill="white"/>
<path d="M341.292 154.894C335.818 156.189 330.085 157.936 324.252 160.09C318.695 162.139 312.966 164.587 307.221 167.363C301.658 170.053 295.999 173.09 290.401 176.391C284.887 179.643 279.34 183.207 273.915 186.982C268.482 190.763 263.071 194.826 257.83 199.062C252.887 203.057 247.975 207.306 243.229 211.692L242.896 211.999H243.515L243.567 211.951C243.839 211.699 244.112 211.447 244.385 211.197C260.286 196.62 278.431 183.579 296.858 173.486C315.616 163.212 333.939 156.407 349.848 153.809L349.999 153.784V153.175L349.791 153.207C347.025 153.646 344.165 154.212 341.291 154.892L341.292 154.894Z" fill="white"/>
<path d="M337.064 137.943C329.855 140.882 322.476 144.279 315.134 148.039C308.078 151.65 300.935 155.66 293.901 159.954C287.015 164.16 280.108 168.716 273.37 173.499C266.649 178.269 259.961 183.363 253.491 188.637C246.915 193.997 240.412 199.668 234.164 205.493C232.001 207.509 229.817 209.596 227.671 211.694L227.36 211.998H227.952L228.004 211.947C230.123 209.873 232.293 207.801 234.452 205.787C235.217 205.075 236.014 204.337 236.822 203.596C253.219 188.565 272.06 174.327 291.31 162.418C311.158 150.141 330.863 140.557 349.876 133.937L349.996 133.895V133.09L349.759 133.171C345.577 134.607 341.305 136.212 337.06 137.943H337.064Z" fill="white"/>
</g>
<path fill-rule="evenodd" clip-rule="evenodd" d="M-16.9116 282.813H23.9113C29.4374 282.813 34.5438 279.894 37.3064 275.156L57.7182 240.156C60.4812 235.419 60.4812 229.581 57.7182 224.844L37.3064 189.844C34.5438 185.106 29.4374 182.187 23.9113 182.187L-16.9116 182.188C-22.4375 182.188 -27.5437 185.106 -30.3066 189.844L-50.7182 224.844C-53.4811 229.581 -53.4811 235.419 -50.7182 240.156L-30.3067 275.156C-27.5437 279.894 -22.4375 282.813 -16.9116 282.813ZM23.9113 285C30.2269 285 36.0624 281.665 39.22 276.25L59.6318 241.25C62.7894 235.835 62.7894 229.165 59.6318 223.75L39.22 188.75C36.0624 183.335 30.2269 180 23.9113 180L-16.9116 180C-23.2269 180 -29.0625 183.335 -32.2202 188.75L-52.6317 223.75C-55.7894 229.165 -55.7894 235.835 -52.6318 241.25L-32.2202 276.25C-29.0625 281.665 -23.2269 285 -16.9116 285H23.9113Z" fill="url(#paint2_linear_1788_28480)"/>
</g>
<defs>
<linearGradient id="paint0_linear_1788_28480" x1="-22.0001" y1="-60" x2="-30.5729" y2="44.2952" gradientUnits="userSpaceOnUse">
<stop stop-color="#C2FFF6" stop-opacity="0.05"/>
<stop offset="1" stop-color="#00A88E"/>
</linearGradient>
<linearGradient id="paint1_linear_1788_28480" x1="401" y1="-5.50005" x2="292" y2="-5.50005" gradientUnits="userSpaceOnUse">
<stop stop-color="#C72C91" stop-opacity="0.1"/>
<stop offset="1" stop-color="#44ABFF"/>
</linearGradient>
<linearGradient id="paint2_linear_1788_28480" x1="3.49994" y1="285" x2="3.49994" y2="180" gradientUnits="userSpaceOnUse">
<stop stop-color="#4AA147" stop-opacity="0.1"/>
<stop offset="1" stop-color="#00A88E"/>
</linearGradient>
<clipPath id="clip0_1788_28480">
<rect width="350" height="212" rx="16" fill="white"/>
</clipPath>
<clipPath id="clip1_1788_28480">
<rect width="169" height="132" fill="white" transform="translate(181 80)"/>
</clipPath>
</defs>
</svg>
