<svg width="390" height="1190" viewBox="0 0 390 1190" fill="none" xmlns="http://www.w3.org/2000/svg">
<g clip-path="url(#clip0_1195_36813)">
<path d="M351.863 6.9477C320.664 -6.95285 254.993 2.4209 223.273 14.0765L392.736 28.4332C390.624 23.9239 388.561 23.2987 351.863 6.9477Z" fill="#E6EFF7"/>
<path d="M0 57.8021V1190H390V12.6518C390 9.98133 389.5 5.54486 379 5.54503C368.5 5.5452 130.042 0 97.6793 0C65.317 0 0 0.000173457 0 57.8021Z" fill="#002B4F"/>
<g opacity="0.2">
<path d="M-13.2354 920C-8.81674 920.399 -25.7784 993.692 89.9017 1057.27C205.582 1120.85 410.249 1060.11 406.951 1207.26" stroke="url(#paint0_linear_1195_36813)"/>
<path d="M-13.7754 930.264C-9.35678 930.663 -26.3184 1003.96 89.3617 1067.53C205.042 1131.11 409.709 1070.37 406.411 1217.52" stroke="url(#paint1_linear_1195_36813)"/>
<path d="M-14.3154 940.527C-9.89681 940.926 -26.8585 1014.22 88.8216 1077.8C204.502 1141.38 409.169 1080.64 405.871 1227.79" stroke="url(#paint2_linear_1195_36813)"/>
<path d="M-14.8545 950.79C-10.4359 951.189 -27.3975 1024.48 88.2826 1088.06C203.963 1151.64 408.63 1090.9 405.332 1238.05" stroke="url(#paint3_linear_1195_36813)"/>
<path d="M-15.3936 961.054C-10.9749 961.453 -27.9366 1034.75 87.7435 1098.32C203.424 1161.9 408.091 1101.16 404.793 1248.31" stroke="url(#paint4_linear_1195_36813)"/>
<path d="M-15.9336 971.317C-11.515 971.716 -28.4766 1045.01 87.2035 1108.59C202.884 1172.17 407.551 1111.43 404.253 1258.58" stroke="url(#paint5_linear_1195_36813)"/>
<path d="M-16.4746 981.581C-12.056 981.98 -29.0177 1055.27 86.6625 1118.85C202.343 1182.43 407.01 1121.69 403.712 1268.84" stroke="url(#paint6_linear_1195_36813)"/>
<path d="M-17.0146 991.844C-12.596 992.243 -29.5577 1065.54 86.1224 1129.11C201.803 1192.69 406.47 1131.95 403.171 1279.1" stroke="url(#paint7_linear_1195_36813)"/>
<path d="M-17.5537 1002.11C-13.1351 1002.51 -30.0968 1075.8 85.5834 1139.38C201.263 1202.96 405.931 1142.22 402.632 1289.37" stroke="url(#paint8_linear_1195_36813)"/>
<path d="M-18.0928 1012.37C-13.6742 1012.77 -30.6358 1086.06 85.0443 1149.64C200.724 1213.22 405.392 1152.48 402.093 1299.63" stroke="url(#paint9_linear_1195_36813)"/>
<path d="M-18.6328 1022.63C-14.2142 1023.03 -31.1759 1096.33 84.5043 1159.9C200.184 1223.48 404.852 1162.74 401.553 1309.89" stroke="url(#paint10_linear_1195_36813)"/>
<path d="M-19.1719 1032.9C-14.7533 1033.3 -31.7149 1106.59 83.9652 1170.17C199.645 1233.75 404.313 1173.01 401.014 1320.16" stroke="url(#paint11_linear_1195_36813)"/>
<path d="M-19.7119 1043.16C-15.2933 1043.56 -32.255 1116.85 83.4252 1180.43C199.105 1244.01 403.773 1183.27 400.474 1330.42" stroke="url(#paint12_linear_1195_36813)"/>
<path d="M-20.251 1053.42C-15.8324 1053.82 -32.794 1127.12 82.8861 1190.69C198.566 1254.27 403.234 1193.53 399.935 1340.68" stroke="url(#paint13_linear_1195_36813)"/>
<path d="M-20.792 1063.69C-16.3734 1064.09 -33.335 1137.38 82.3451 1200.96C198.025 1264.54 402.693 1203.8 399.394 1350.95" stroke="url(#paint14_linear_1195_36813)"/>
<path d="M-21.332 1073.95C-16.9134 1074.35 -33.8751 1147.64 81.805 1211.22C197.485 1274.8 402.153 1214.06 398.854 1361.21" stroke="url(#paint15_linear_1195_36813)"/>
<path d="M-21.8711 1084.21C-17.4525 1084.61 -34.4141 1157.91 81.266 1221.48C196.946 1285.06 401.614 1224.32 398.315 1371.47" stroke="url(#paint16_linear_1195_36813)"/>
<path d="M-22.4111 1094.48C-17.9925 1094.88 -34.9542 1168.17 80.7259 1231.75C196.406 1295.33 401.074 1234.59 397.775 1381.74" stroke="url(#paint17_linear_1195_36813)"/>
<path d="M-22.9502 1104.74C-18.5316 1105.14 -35.4932 1178.43 80.1869 1242.01C195.867 1305.59 400.535 1244.85 397.236 1392" stroke="url(#paint18_linear_1195_36813)"/>
<ellipse cx="9.91898" cy="988.805" rx="2.30179" ry="3.01649" fill="url(#paint19_linear_1195_36813)"/>
<ellipse cx="7.15668" cy="1029.83" rx="2.76215" ry="3.61979" fill="url(#paint20_linear_1195_36813)"/>
<ellipse cx="12.6807" cy="1069.65" rx="2.30179" ry="3.01649" fill="url(#paint21_linear_1195_36813)"/>
<ellipse cx="5.31489" cy="1104.64" rx="2.76215" ry="3.61979" fill="url(#paint22_linear_1195_36813)"/>
<ellipse cx="32.937" cy="1113.08" rx="2.76215" ry="3.61979" fill="url(#paint23_linear_1195_36813)"/>
<ellipse cx="21.8881" cy="1155.92" rx="2.76215" ry="3.61979" fill="url(#paint24_linear_1195_36813)"/>
<ellipse cx="5.31489" cy="1168.59" rx="2.76215" ry="3.61979" fill="url(#paint25_linear_1195_36813)"/>
<ellipse cx="30.1748" cy="1013.54" rx="2.30179" ry="3.01649" fill="url(#paint26_linear_1195_36813)"/>
<ellipse cx="38.4614" cy="1053.36" rx="2.76215" ry="3.61979" fill="url(#paint27_linear_1195_36813)"/>
<ellipse cx="68.8442" cy="1119.12" rx="2.76215" ry="3.61979" fill="url(#paint28_linear_1195_36813)"/>
<ellipse cx="45.8272" cy="1145.06" rx="2.30179" ry="3.01649" fill="url(#paint29_linear_1195_36813)"/>
<ellipse cx="56.4151" cy="1175.23" rx="2.30179" ry="3.01649" fill="url(#paint30_linear_1195_36813)"/>
<ellipse cx="54.5733" cy="1034.05" rx="2.30179" ry="3.01649" fill="url(#paint31_linear_1195_36813)"/>
<ellipse cx="57.7959" cy="1089.56" rx="2.30179" ry="3.01649" fill="url(#paint32_linear_1195_36813)"/>
</g>
<path opacity="0.3" d="M334.284 766.266C309.56 789.287 271.561 847.193 314.348 898.215C357.136 949.238 345.968 1018.84 335.036 1047.27" stroke="#0060AF" stroke-linecap="round"/>
<path opacity="0.2" d="M298.745 766C298.745 759.078 300.798 752.311 304.644 746.555C308.49 740.799 313.956 736.313 320.351 733.664C326.747 731.015 333.784 730.322 340.573 731.673C347.363 733.023 353.599 736.356 358.494 741.251C363.389 746.146 366.722 752.383 368.073 759.172C369.423 765.961 368.73 772.999 366.081 779.394C363.432 785.789 358.946 791.256 353.19 795.101C347.434 798.947 340.667 801 333.745 801L333.745 766L298.745 766Z" fill="#0060AF"/>
<path opacity="0.2" d="M369.745 1047C369.745 1053.92 367.692 1060.69 363.847 1066.44C360.001 1072.2 354.534 1076.69 348.139 1079.34C341.744 1081.98 334.706 1082.68 327.917 1081.33C321.128 1079.98 314.891 1076.64 309.996 1071.75C305.102 1066.85 301.768 1060.62 300.418 1053.83C299.067 1047.04 299.76 1040 302.409 1033.61C305.058 1027.21 309.544 1021.74 315.3 1017.9C321.056 1014.05 327.823 1012 334.745 1012V1047H369.745Z" fill="#0060AF"/>
</g>
<defs>
<linearGradient id="paint0_linear_1195_36813" x1="203.382" y1="939.564" x2="181.048" y2="1186.86" gradientUnits="userSpaceOnUse">
<stop stop-color="#5F98C7"/>
<stop offset="1" stop-color="#369F99"/>
</linearGradient>
<linearGradient id="paint1_linear_1195_36813" x1="202.842" y1="949.827" x2="180.508" y2="1197.12" gradientUnits="userSpaceOnUse">
<stop stop-color="#5F98C7"/>
<stop offset="1" stop-color="#369F99"/>
</linearGradient>
<linearGradient id="paint2_linear_1195_36813" x1="202.302" y1="960.09" x2="179.968" y2="1207.38" gradientUnits="userSpaceOnUse">
<stop stop-color="#5F98C7"/>
<stop offset="1" stop-color="#369F99"/>
</linearGradient>
<linearGradient id="paint3_linear_1195_36813" x1="201.763" y1="970.354" x2="179.429" y2="1217.65" gradientUnits="userSpaceOnUse">
<stop stop-color="#5F98C7"/>
<stop offset="1" stop-color="#369F99"/>
</linearGradient>
<linearGradient id="paint4_linear_1195_36813" x1="201.224" y1="980.617" x2="178.89" y2="1227.91" gradientUnits="userSpaceOnUse">
<stop stop-color="#5F98C7"/>
<stop offset="1" stop-color="#369F99"/>
</linearGradient>
<linearGradient id="paint5_linear_1195_36813" x1="200.684" y1="990.88" x2="178.35" y2="1238.17" gradientUnits="userSpaceOnUse">
<stop stop-color="#5F98C7"/>
<stop offset="1" stop-color="#369F99"/>
</linearGradient>
<linearGradient id="paint6_linear_1195_36813" x1="200.143" y1="1001.14" x2="177.809" y2="1248.44" gradientUnits="userSpaceOnUse">
<stop stop-color="#5F98C7"/>
<stop offset="1" stop-color="#369F99"/>
</linearGradient>
<linearGradient id="paint7_linear_1195_36813" x1="199.603" y1="1011.41" x2="177.269" y2="1258.7" gradientUnits="userSpaceOnUse">
<stop stop-color="#5F98C7"/>
<stop offset="1" stop-color="#369F99"/>
</linearGradient>
<linearGradient id="paint8_linear_1195_36813" x1="199.064" y1="1021.67" x2="176.73" y2="1268.96" gradientUnits="userSpaceOnUse">
<stop stop-color="#5F98C7"/>
<stop offset="1" stop-color="#369F99"/>
</linearGradient>
<linearGradient id="paint9_linear_1195_36813" x1="198.525" y1="1031.93" x2="176.191" y2="1279.23" gradientUnits="userSpaceOnUse">
<stop stop-color="#5F98C7"/>
<stop offset="1" stop-color="#369F99"/>
</linearGradient>
<linearGradient id="paint10_linear_1195_36813" x1="197.985" y1="1042.2" x2="175.651" y2="1289.49" gradientUnits="userSpaceOnUse">
<stop stop-color="#5F98C7"/>
<stop offset="1" stop-color="#369F99"/>
</linearGradient>
<linearGradient id="paint11_linear_1195_36813" x1="197.445" y1="1052.46" x2="175.112" y2="1299.75" gradientUnits="userSpaceOnUse">
<stop stop-color="#5F98C7"/>
<stop offset="1" stop-color="#369F99"/>
</linearGradient>
<linearGradient id="paint12_linear_1195_36813" x1="196.905" y1="1062.72" x2="174.571" y2="1310.02" gradientUnits="userSpaceOnUse">
<stop stop-color="#5F98C7"/>
<stop offset="1" stop-color="#369F99"/>
</linearGradient>
<linearGradient id="paint13_linear_1195_36813" x1="196.366" y1="1072.99" x2="174.032" y2="1320.28" gradientUnits="userSpaceOnUse">
<stop stop-color="#5F98C7"/>
<stop offset="1" stop-color="#369F99"/>
</linearGradient>
<linearGradient id="paint14_linear_1195_36813" x1="195.825" y1="1083.25" x2="173.491" y2="1330.54" gradientUnits="userSpaceOnUse">
<stop stop-color="#5F98C7"/>
<stop offset="1" stop-color="#369F99"/>
</linearGradient>
<linearGradient id="paint15_linear_1195_36813" x1="195.285" y1="1093.51" x2="172.951" y2="1340.81" gradientUnits="userSpaceOnUse">
<stop stop-color="#5F98C7"/>
<stop offset="1" stop-color="#369F99"/>
</linearGradient>
<linearGradient id="paint16_linear_1195_36813" x1="194.746" y1="1103.78" x2="172.412" y2="1351.07" gradientUnits="userSpaceOnUse">
<stop stop-color="#5F98C7"/>
<stop offset="1" stop-color="#369F99"/>
</linearGradient>
<linearGradient id="paint17_linear_1195_36813" x1="194.206" y1="1114.04" x2="171.872" y2="1361.33" gradientUnits="userSpaceOnUse">
<stop stop-color="#5F98C7"/>
<stop offset="1" stop-color="#369F99"/>
</linearGradient>
<linearGradient id="paint18_linear_1195_36813" x1="193.667" y1="1124.3" x2="171.333" y2="1371.6" gradientUnits="userSpaceOnUse">
<stop stop-color="#5F98C7"/>
<stop offset="1" stop-color="#369F99"/>
</linearGradient>
<linearGradient id="paint19_linear_1195_36813" x1="9.91898" y1="985.788" x2="9.91898" y2="991.821" gradientUnits="userSpaceOnUse">
<stop stop-color="#01A7CB" stop-opacity="0"/>
<stop offset="1" stop-color="#D7F0FF"/>
</linearGradient>
<linearGradient id="paint20_linear_1195_36813" x1="7.15668" y1="1026.21" x2="7.15668" y2="1033.45" gradientUnits="userSpaceOnUse">
<stop stop-color="#01A7CB" stop-opacity="0"/>
<stop offset="1" stop-color="#D7F0FF"/>
</linearGradient>
<linearGradient id="paint21_linear_1195_36813" x1="12.6807" y1="1066.63" x2="12.6807" y2="1072.66" gradientUnits="userSpaceOnUse">
<stop stop-color="#01A7CB" stop-opacity="0"/>
<stop offset="1" stop-color="#D7F0FF"/>
</linearGradient>
<linearGradient id="paint22_linear_1195_36813" x1="5.31489" y1="1101.02" x2="5.31489" y2="1108.26" gradientUnits="userSpaceOnUse">
<stop stop-color="#01A7CB" stop-opacity="0"/>
<stop offset="1" stop-color="#D7F0FF"/>
</linearGradient>
<linearGradient id="paint23_linear_1195_36813" x1="32.937" y1="1109.46" x2="32.937" y2="1116.7" gradientUnits="userSpaceOnUse">
<stop stop-color="#01A7CB" stop-opacity="0"/>
<stop offset="1" stop-color="#D7F0FF"/>
</linearGradient>
<linearGradient id="paint24_linear_1195_36813" x1="21.8881" y1="1152.3" x2="21.8881" y2="1159.54" gradientUnits="userSpaceOnUse">
<stop stop-color="#01A7CB" stop-opacity="0"/>
<stop offset="1" stop-color="#D7F0FF"/>
</linearGradient>
<linearGradient id="paint25_linear_1195_36813" x1="5.31489" y1="1164.97" x2="5.31489" y2="1172.21" gradientUnits="userSpaceOnUse">
<stop stop-color="#01A7CB" stop-opacity="0"/>
<stop offset="1" stop-color="#D7F0FF"/>
</linearGradient>
<linearGradient id="paint26_linear_1195_36813" x1="30.1748" y1="1010.52" x2="30.1748" y2="1016.56" gradientUnits="userSpaceOnUse">
<stop stop-color="#01A7CB" stop-opacity="0"/>
<stop offset="1" stop-color="#D7F0FF"/>
</linearGradient>
<linearGradient id="paint27_linear_1195_36813" x1="38.4614" y1="1049.74" x2="38.4614" y2="1056.98" gradientUnits="userSpaceOnUse">
<stop stop-color="#01A7CB" stop-opacity="0"/>
<stop offset="1" stop-color="#D7F0FF"/>
</linearGradient>
<linearGradient id="paint28_linear_1195_36813" x1="68.8442" y1="1115.5" x2="68.8442" y2="1122.74" gradientUnits="userSpaceOnUse">
<stop stop-color="#01A7CB" stop-opacity="0"/>
<stop offset="1" stop-color="#D7F0FF"/>
</linearGradient>
<linearGradient id="paint29_linear_1195_36813" x1="45.8272" y1="1142.04" x2="45.8272" y2="1148.08" gradientUnits="userSpaceOnUse">
<stop stop-color="#01A7CB" stop-opacity="0"/>
<stop offset="1" stop-color="#D7F0FF"/>
</linearGradient>
<linearGradient id="paint30_linear_1195_36813" x1="56.4151" y1="1172.21" x2="56.4151" y2="1178.24" gradientUnits="userSpaceOnUse">
<stop stop-color="#01A7CB" stop-opacity="0"/>
<stop offset="1" stop-color="#D7F0FF"/>
</linearGradient>
<linearGradient id="paint31_linear_1195_36813" x1="54.5733" y1="1031.04" x2="54.5733" y2="1037.07" gradientUnits="userSpaceOnUse">
<stop stop-color="#01A7CB" stop-opacity="0"/>
<stop offset="1" stop-color="#D7F0FF"/>
</linearGradient>
<linearGradient id="paint32_linear_1195_36813" x1="57.7959" y1="1086.54" x2="57.7959" y2="1092.57" gradientUnits="userSpaceOnUse">
<stop stop-color="#01A7CB" stop-opacity="0"/>
<stop offset="1" stop-color="#D7F0FF"/>
</linearGradient>
<clipPath id="clip0_1195_36813">
<rect width="390" height="1190" fill="white"/>
</clipPath>
</defs>
</svg>
