<svg width="1920" height="498" viewBox="0 0 1920 498" fill="none" xmlns="http://www.w3.org/2000/svg">
<g clip-path="url(#clip0_1144_36946)">
<path d="M1714.5 11.7342C1594.1 -14.2658 1296.67 12.9006 1163 30.7339L1895.5 61.7341C1885.33 55.9008 1834.9 37.7342 1714.5 11.7342Z" fill="#E6EFF7"/>
<path d="M0 98.355V498H1920V57.27C1909.9 52.29 1899.39 48.3589 1859.69 46.065C1820 43.7711 458.051 0 298.729 0C139.407 0 49.5 50.791 0 98.355Z" fill="#002B4F"/>
<g opacity="0.3">
<path d="M-0.551758 130.688C9.04645 131.349 -27.798 252.836 223.485 358.222C474.767 463.608 919.35 362.925 912.185 606.835" stroke="url(#paint0_linear_1144_36946)"/>
<path d="M-1.72363 147.7C7.87457 148.362 -28.9699 269.848 222.313 375.234C473.596 480.62 918.179 379.938 911.013 623.848" stroke="url(#paint1_linear_1144_36946)"/>
<path d="M-2.89551 164.712C6.7027 165.373 -30.1418 286.86 221.141 392.246C472.424 497.632 917.007 396.949 909.841 640.859" stroke="url(#paint2_linear_1144_36946)"/>
<path d="M-4.06738 181.724C5.53082 182.385 -31.3136 303.872 219.969 409.258C471.252 514.644 915.835 413.961 908.669 657.871" stroke="url(#paint3_linear_1144_36946)"/>
<path d="M-5.23926 198.736C4.35895 199.398 -32.4855 320.884 218.797 426.27C470.08 531.656 914.663 430.974 907.498 674.884" stroke="url(#paint4_linear_1144_36946)"/>
<path d="M-6.41113 215.748C3.18707 216.41 -33.6574 337.896 217.625 443.282C468.908 548.668 913.491 447.985 906.326 691.895" stroke="url(#paint5_linear_1144_36946)"/>
<path d="M-7.58691 232.761C2.01129 233.422 -34.8332 354.909 216.45 460.295C467.732 565.681 912.315 464.998 905.15 708.908" stroke="url(#paint6_linear_1144_36946)"/>
<path d="M-8.75879 249.772C0.839417 250.434 -36.005 371.921 215.278 477.307C466.56 582.693 911.143 482.01 903.978 725.92" stroke="url(#paint7_linear_1144_36946)"/>
<path d="M-9.93066 266.784C-0.332458 267.446 -37.1769 388.932 214.106 494.318C465.389 599.704 909.972 499.022 902.806 742.932" stroke="url(#paint8_linear_1144_36946)"/>
<path d="M-11.1025 283.797C-1.50433 284.458 -38.3488 405.945 212.934 511.331C464.217 616.717 908.8 516.034 901.634 759.944" stroke="url(#paint9_linear_1144_36946)"/>
<path d="M-12.2744 300.809C-2.67621 301.47 -39.5207 422.957 211.762 528.343C463.045 633.729 907.628 533.046 900.462 776.956" stroke="url(#paint10_linear_1144_36946)"/>
<path d="M-13.4463 317.82C-3.84808 318.482 -40.6925 439.968 210.59 545.354C461.873 650.74 906.456 550.058 899.291 793.968" stroke="url(#paint11_linear_1144_36946)"/>
<path d="M-14.6182 334.833C-5.01996 335.494 -41.8644 456.981 209.418 562.367C460.701 667.753 905.284 567.07 898.119 810.98" stroke="url(#paint12_linear_1144_36946)"/>
<path d="M-15.79 351.845C-6.19183 352.506 -43.0363 473.993 208.246 579.379C459.529 684.765 904.112 584.082 896.947 827.992" stroke="url(#paint13_linear_1144_36946)"/>
<path d="M-16.9658 368.857C-7.36761 369.519 -44.2121 491.006 207.071 596.392C458.353 701.778 902.936 601.095 895.771 845.005" stroke="url(#paint14_linear_1144_36946)"/>
<path d="M-18.1377 385.869C-8.53949 386.531 -45.384 508.017 205.899 613.403C457.181 718.789 901.765 618.107 894.599 862.016" stroke="url(#paint15_linear_1144_36946)"/>
<path d="M-19.3096 402.881C-9.71136 403.542 -46.5558 525.029 204.727 630.415C456.01 735.801 900.593 635.118 893.427 879.028" stroke="url(#paint16_linear_1144_36946)"/>
<path d="M-20.4814 419.893C-10.8832 420.554 -47.7277 542.041 203.555 647.427C454.838 752.813 899.421 652.13 892.255 896.04" stroke="url(#paint17_linear_1144_36946)"/>
<path d="M-21.6533 436.905C-12.0551 437.567 -48.8996 559.053 202.383 664.439C453.666 769.825 898.249 669.143 891.083 913.053" stroke="url(#paint18_linear_1144_36946)"/>
<circle cx="49.7451" cy="244.734" r="5" fill="url(#paint19_linear_1144_36946)"/>
<circle cx="43.7451" cy="312.734" r="6" fill="url(#paint20_linear_1144_36946)"/>
<circle cx="55.7451" cy="378.734" r="5" fill="url(#paint21_linear_1144_36946)"/>
<circle cx="39.7451" cy="436.734" r="6" fill="url(#paint22_linear_1144_36946)"/>
<circle cx="99.7451" cy="450.734" r="6" fill="url(#paint23_linear_1144_36946)"/>
<circle cx="21.7451" cy="487.734" r="6" fill="url(#paint24_linear_1144_36946)"/>
<circle cx="93.7451" cy="285.734" r="5" fill="url(#paint25_linear_1144_36946)"/>
<circle cx="111.745" cy="351.734" r="6" fill="url(#paint26_linear_1144_36946)"/>
<circle cx="177.745" cy="460.734" r="6" fill="url(#paint27_linear_1144_36946)"/>
<circle cx="146.745" cy="319.734" r="5" fill="url(#paint28_linear_1144_36946)"/>
<circle cx="153.745" cy="411.734" r="5" fill="url(#paint29_linear_1144_36946)"/>
</g>
<path opacity="0.3" d="M1808.28 135C1783.56 158.021 1745.56 215.927 1788.35 266.949C1831.14 317.972 1819.97 387.576 1809.04 416" stroke="#0060AF" stroke-linecap="round"/>
<path opacity="0.2" d="M1772.75 134.734C1772.75 127.812 1774.8 121.045 1778.64 115.289C1782.49 109.534 1787.96 105.048 1794.35 102.399C1800.75 99.7495 1807.78 99.0564 1814.57 100.407C1821.36 101.757 1827.6 105.091 1832.49 109.986C1837.39 114.88 1840.72 121.117 1842.07 127.906C1843.42 134.696 1842.73 141.733 1840.08 148.128C1837.43 154.524 1832.95 159.99 1827.19 163.836C1821.43 167.682 1814.67 169.734 1807.75 169.734L1807.75 134.734L1772.75 134.734Z" fill="#0060AF"/>
<path opacity="0.2" d="M1843.75 415.734C1843.75 422.657 1841.69 429.424 1837.85 435.179C1834 440.935 1828.53 445.421 1822.14 448.07C1815.74 450.719 1808.71 451.412 1801.92 450.062C1795.13 448.711 1788.89 445.378 1784 440.483C1779.1 435.588 1775.77 429.352 1774.42 422.563C1773.07 415.773 1773.76 408.736 1776.41 402.34C1779.06 395.945 1783.54 390.479 1789.3 386.633C1795.06 382.787 1801.82 380.734 1808.75 380.734V415.734H1843.75Z" fill="#0060AF"/>
</g>
<defs>
<linearGradient id="paint0_linear_1144_36946" x1="469.989" y1="163.115" x2="441.644" y2="574.407" gradientUnits="userSpaceOnUse">
<stop stop-color="#5F98C7"/>
<stop offset="1" stop-color="#369F99"/>
</linearGradient>
<linearGradient id="paint1_linear_1144_36946" x1="468.817" y1="180.128" x2="440.473" y2="591.42" gradientUnits="userSpaceOnUse">
<stop stop-color="#5F98C7"/>
<stop offset="1" stop-color="#369F99"/>
</linearGradient>
<linearGradient id="paint2_linear_1144_36946" x1="467.645" y1="197.139" x2="439.301" y2="608.432" gradientUnits="userSpaceOnUse">
<stop stop-color="#5F98C7"/>
<stop offset="1" stop-color="#369F99"/>
</linearGradient>
<linearGradient id="paint3_linear_1144_36946" x1="466.473" y1="214.151" x2="438.129" y2="625.443" gradientUnits="userSpaceOnUse">
<stop stop-color="#5F98C7"/>
<stop offset="1" stop-color="#369F99"/>
</linearGradient>
<linearGradient id="paint4_linear_1144_36946" x1="465.301" y1="231.164" x2="436.957" y2="642.456" gradientUnits="userSpaceOnUse">
<stop stop-color="#5F98C7"/>
<stop offset="1" stop-color="#369F99"/>
</linearGradient>
<linearGradient id="paint5_linear_1144_36946" x1="464.129" y1="248.176" x2="435.785" y2="659.468" gradientUnits="userSpaceOnUse">
<stop stop-color="#5F98C7"/>
<stop offset="1" stop-color="#369F99"/>
</linearGradient>
<linearGradient id="paint6_linear_1144_36946" x1="462.954" y1="265.188" x2="434.609" y2="676.481" gradientUnits="userSpaceOnUse">
<stop stop-color="#5F98C7"/>
<stop offset="1" stop-color="#369F99"/>
</linearGradient>
<linearGradient id="paint7_linear_1144_36946" x1="461.782" y1="282.2" x2="433.437" y2="693.492" gradientUnits="userSpaceOnUse">
<stop stop-color="#5F98C7"/>
<stop offset="1" stop-color="#369F99"/>
</linearGradient>
<linearGradient id="paint8_linear_1144_36946" x1="460.61" y1="299.212" x2="432.266" y2="710.504" gradientUnits="userSpaceOnUse">
<stop stop-color="#5F98C7"/>
<stop offset="1" stop-color="#369F99"/>
</linearGradient>
<linearGradient id="paint9_linear_1144_36946" x1="459.438" y1="316.224" x2="431.094" y2="727.517" gradientUnits="userSpaceOnUse">
<stop stop-color="#5F98C7"/>
<stop offset="1" stop-color="#369F99"/>
</linearGradient>
<linearGradient id="paint10_linear_1144_36946" x1="458.266" y1="333.236" x2="429.922" y2="744.528" gradientUnits="userSpaceOnUse">
<stop stop-color="#5F98C7"/>
<stop offset="1" stop-color="#369F99"/>
</linearGradient>
<linearGradient id="paint11_linear_1144_36946" x1="457.094" y1="350.248" x2="428.75" y2="761.54" gradientUnits="userSpaceOnUse">
<stop stop-color="#5F98C7"/>
<stop offset="1" stop-color="#369F99"/>
</linearGradient>
<linearGradient id="paint12_linear_1144_36946" x1="455.922" y1="367.261" x2="427.578" y2="778.553" gradientUnits="userSpaceOnUse">
<stop stop-color="#5F98C7"/>
<stop offset="1" stop-color="#369F99"/>
</linearGradient>
<linearGradient id="paint13_linear_1144_36946" x1="454.751" y1="384.272" x2="426.406" y2="795.565" gradientUnits="userSpaceOnUse">
<stop stop-color="#5F98C7"/>
<stop offset="1" stop-color="#369F99"/>
</linearGradient>
<linearGradient id="paint14_linear_1144_36946" x1="453.575" y1="401.285" x2="425.23" y2="812.577" gradientUnits="userSpaceOnUse">
<stop stop-color="#5F98C7"/>
<stop offset="1" stop-color="#369F99"/>
</linearGradient>
<linearGradient id="paint15_linear_1144_36946" x1="452.403" y1="418.297" x2="424.058" y2="829.589" gradientUnits="userSpaceOnUse">
<stop stop-color="#5F98C7"/>
<stop offset="1" stop-color="#369F99"/>
</linearGradient>
<linearGradient id="paint16_linear_1144_36946" x1="451.231" y1="435.308" x2="422.887" y2="846.601" gradientUnits="userSpaceOnUse">
<stop stop-color="#5F98C7"/>
<stop offset="1" stop-color="#369F99"/>
</linearGradient>
<linearGradient id="paint17_linear_1144_36946" x1="450.059" y1="452.32" x2="421.715" y2="863.612" gradientUnits="userSpaceOnUse">
<stop stop-color="#5F98C7"/>
<stop offset="1" stop-color="#369F99"/>
</linearGradient>
<linearGradient id="paint18_linear_1144_36946" x1="448.887" y1="469.333" x2="420.543" y2="880.625" gradientUnits="userSpaceOnUse">
<stop stop-color="#5F98C7"/>
<stop offset="1" stop-color="#369F99"/>
</linearGradient>
<linearGradient id="paint19_linear_1144_36946" x1="49.7451" y1="239.734" x2="49.7451" y2="249.734" gradientUnits="userSpaceOnUse">
<stop stop-color="#01A7CB" stop-opacity="0"/>
<stop offset="1" stop-color="#D7F0FF"/>
</linearGradient>
<linearGradient id="paint20_linear_1144_36946" x1="43.7451" y1="306.734" x2="43.7451" y2="318.734" gradientUnits="userSpaceOnUse">
<stop stop-color="#01A7CB" stop-opacity="0"/>
<stop offset="1" stop-color="#D7F0FF"/>
</linearGradient>
<linearGradient id="paint21_linear_1144_36946" x1="55.7451" y1="373.734" x2="55.7451" y2="383.734" gradientUnits="userSpaceOnUse">
<stop stop-color="#01A7CB" stop-opacity="0"/>
<stop offset="1" stop-color="#D7F0FF"/>
</linearGradient>
<linearGradient id="paint22_linear_1144_36946" x1="39.7451" y1="430.734" x2="39.7451" y2="442.734" gradientUnits="userSpaceOnUse">
<stop stop-color="#01A7CB" stop-opacity="0"/>
<stop offset="1" stop-color="#D7F0FF"/>
</linearGradient>
<linearGradient id="paint23_linear_1144_36946" x1="99.7451" y1="444.734" x2="99.7451" y2="456.734" gradientUnits="userSpaceOnUse">
<stop stop-color="#01A7CB" stop-opacity="0"/>
<stop offset="1" stop-color="#D7F0FF"/>
</linearGradient>
<linearGradient id="paint24_linear_1144_36946" x1="21.7451" y1="481.734" x2="21.7451" y2="493.734" gradientUnits="userSpaceOnUse">
<stop stop-color="#01A7CB" stop-opacity="0"/>
<stop offset="1" stop-color="#D7F0FF"/>
</linearGradient>
<linearGradient id="paint25_linear_1144_36946" x1="93.7451" y1="280.734" x2="93.7451" y2="290.734" gradientUnits="userSpaceOnUse">
<stop stop-color="#01A7CB" stop-opacity="0"/>
<stop offset="1" stop-color="#D7F0FF"/>
</linearGradient>
<linearGradient id="paint26_linear_1144_36946" x1="111.745" y1="345.734" x2="111.745" y2="357.734" gradientUnits="userSpaceOnUse">
<stop stop-color="#01A7CB" stop-opacity="0"/>
<stop offset="1" stop-color="#D7F0FF"/>
</linearGradient>
<linearGradient id="paint27_linear_1144_36946" x1="177.745" y1="454.734" x2="177.745" y2="466.734" gradientUnits="userSpaceOnUse">
<stop stop-color="#01A7CB" stop-opacity="0"/>
<stop offset="1" stop-color="#D7F0FF"/>
</linearGradient>
<linearGradient id="paint28_linear_1144_36946" x1="146.745" y1="314.734" x2="146.745" y2="324.734" gradientUnits="userSpaceOnUse">
<stop stop-color="#01A7CB" stop-opacity="0"/>
<stop offset="1" stop-color="#D7F0FF"/>
</linearGradient>
<linearGradient id="paint29_linear_1144_36946" x1="153.745" y1="406.734" x2="153.745" y2="416.734" gradientUnits="userSpaceOnUse">
<stop stop-color="#01A7CB" stop-opacity="0"/>
<stop offset="1" stop-color="#D7F0FF"/>
</linearGradient>
<clipPath id="clip0_1144_36946">
<rect width="1920" height="498" fill="white"/>
</clipPath>
</defs>
</svg>
